<svg width="520" height="520" xmlns="http://www.w3.org/2000/svg" xml:space="preserve" enable-background="new 0 0 511 507.62" version="1.1">
 <g>
  <title>background</title>
   <rect x="-1" y="-1" width="522" height="522" id="canvas_background" fill="none"/>
 </g>

  <g>
  <title>Layer 1</title>
    <g stroke="null" id="svg_1">
   <path stroke="#9e7f75" stroke-width="3" fill="none" id="svg_2" d="m502.74427,278.1061c0.44276,-6.17148 0.66905,-12.39346 0.66905,-18.68614c0,-26.32221 -3.95528,-51.69496 -11.27551,-75.53242c-6.44455,-20.97898 -29.61542,-27.95851 -48.18164,-16.95894l-59.61457,35.33196c-18.55638,10.99957 -17.96603,27.68579 1.32827,37.26118l80.12891,39.79643c19.2943,9.60569 36.19772,9.09056 36.94549,-1.21207z"/>
      <path stroke="#9e7f75" stroke-width="3" fill="none" id="svg_3" d="m373.33175,185.79656l61.24785,-36.30162c18.55638,-10.99957 24.81399,-35.42287 10.96066,-52.21009c-19.61899,-23.76675 -43.47859,-43.73567 -70.36861,-58.67449c-18.84171,-10.47434 -35.44996,1.73731 -35.44996,23.73645l0,103.54143c0,21.98904 15.05369,30.90789 33.61006,19.90832z"/>
      <path stroke="#9e7f75" stroke-width="3" fill="none" id="svg_4" d="m45.73203,136.59645c-19.89448,36.30162 -31.2487,78.20908 -31.2487,122.83361c0,29.77662 5.05725,58.34117 14.33544,84.83509c7.25135,20.70627 31.0224,27.34237 49.57878,16.3428l197.31154,-116.94495c18.55638,-10.99957 17.96603,-27.68579 -1.31843,-37.27128l-172.11383,-85.48153c-19.28446,-9.57539 -46.03673,-3.49481 -56.5448,15.68626z"/>
      <path stroke="#9e7f75" stroke-width="3" fill="none" id="svg_5" d="m320.31916,167.25183l0,-110.97548c0,-21.99914 -13.44993,-43.61447 -30.4419,-45.8265c-10.13418,-1.31308 -20.4553,-1.98982 -30.93385,-1.98982c-56.46609,0 -108.45542,19.6659 -149.83831,52.67472c-16.9231,13.49442 -12.99733,34.58451 6.28713,44.17l169.99844,84.43106c19.2943,9.58549 34.92849,-0.48483 34.92849,-22.48397l0,-0.00001z"/>
      <path stroke="#9e7f75" stroke-width="3" fill="none" id="svg_6" d="m339.72169,278.68184l0,177.83147c0,21.99914 16.60825,34.21079 35.44996,23.73645c49.3328,-27.42318 88.43303,-71.74469 109.94111,-125.41937c8.15654,-20.34264 -3.79786,-45.66489 -23.09216,-55.24028l-87.37042,-43.39225c-19.28446,-9.58549 -34.92849,0.48483 -34.92849,22.48397l0,0.00001z"/>
      <path stroke="#9e7f75" stroke-width="3" fill="none" id="svg_7" d="m286.71894,260.1371l-198.27576,117.51058c-18.55638,10.99957 -24.23349,35.05924 -9.75046,51.28083c44.68879,50.05866 108.89818,81.46148 180.25069,81.46148c10.47855,0 20.79967,-0.67674 30.93385,-1.98982c16.99197,-2.20193 30.4419,-23.81726 30.4419,-45.8265l0,-182.52826c0,-21.99914 -15.04385,-30.91799 -33.60022,-19.90832l0,0.00001z"/>
  </g>
 </g>
</svg>
